<svg width="120" height="75" viewBox="0 0 120 75" fill="none" xmlns="http://www.w3.org/2000/svg">
<g clip-path="url(#clip0_60219_2424)">
<mask id="mask0_60219_2424" style="mask-type:luminance" maskUnits="userSpaceOnUse" x="0" y="0" width="120" height="75">
<path d="M0.0283203 0.194336H119.537V74.1299H0.0283203V0.194336Z" fill="white"/>
</mask>
<g mask="url(#mask0_60219_2424)">
<path fill-rule="evenodd" clip-rule="evenodd" d="M49.6499 8.28812C53.5076 4.73143 58.8767 2.52893 64.8082 2.52893C72.7169 2.52893 79.5711 6.42028 83.2618 12.2184C86.5379 10.9213 90.0863 10.2516 93.6749 10.2533C107.91 10.2533 119.466 20.5653 119.466 33.29C119.466 46.0147 107.91 56.3268 93.6749 56.3268C91.935 56.3268 90.239 56.1719 88.5782 55.8793C85.3488 60.977 79.1756 64.4403 72.1457 64.4403C69.2836 64.4453 66.4581 63.8703 63.8855 62.7592C60.6122 69.5691 52.9891 74.3554 44.1138 74.3554C34.8431 74.3554 26.9783 69.1799 23.9467 61.9031C22.5974 62.1553 21.222 62.2821 19.843 62.2813C8.81474 62.2813 -0.104492 54.2652 -0.104492 44.4201C-0.104492 37.8048 3.91136 32.0456 9.86923 28.9325C8.60527 26.3537 7.95466 23.572 7.95797 20.7607C7.95797 9.39794 18.3711 0.214355 31.2007 0.214355C38.7139 0.214355 45.4363 3.3858 49.6543 8.30836" fill="#00A1E0"/>
</g>
<path fill-rule="evenodd" clip-rule="evenodd" d="M17.3109 38.6408C17.2357 38.8143 17.3377 38.8505 17.3618 38.8813C17.5863 39.0253 17.8144 39.1295 18.0429 39.2467C19.2643 39.8187 20.4155 39.986 21.6193 39.986C24.071 39.986 25.5956 38.8303 25.5956 36.9702V36.9337C25.5956 35.2137 23.8733 34.5872 22.2652 34.1397L22.0548 34.0794C20.8377 33.7299 19.7876 33.4256 19.7876 32.7174V32.6812C19.7876 32.0741 20.4027 31.6266 21.3518 31.6266C22.4063 31.6266 23.6629 31.9376 24.4669 32.331C24.4669 32.331 24.705 32.4672 24.7916 32.2637C24.8386 32.1535 25.2485 31.1819 25.2925 31.0729C25.3391 30.9589 25.2573 30.8729 25.1734 30.8285C24.2507 30.3304 22.9766 29.9919 21.6584 29.9919L21.4137 29.9927C19.1685 29.9927 17.6 31.1951 17.6 32.9151V32.952C17.6 34.7654 19.3311 35.3569 20.948 35.7655L21.2081 35.8371C22.3856 36.1577 23.4049 36.4363 23.4049 37.1679V37.2045C23.4049 37.8777 22.7415 38.3797 21.6782 38.3797C21.2648 38.3797 19.9471 38.3735 18.5191 37.5742C18.3465 37.4851 18.248 37.4209 18.1149 37.3489C18.0446 37.3111 17.8689 37.243 17.7924 37.4469L17.3091 38.6377M53.2057 38.6377C53.1306 38.8112 53.2325 38.8474 53.2576 38.8782C53.4812 39.0221 53.7101 39.1264 53.9386 39.2436C55.16 39.8156 56.3112 39.9829 57.5151 39.9829C59.9668 39.9829 61.4914 38.8272 61.4914 36.9671V36.9305C61.4914 35.2106 59.7734 34.5841 58.1609 34.1366L57.9505 34.0762C56.7334 33.7268 55.6833 33.4225 55.6833 32.7143V32.6781C55.6833 32.071 56.2985 31.6235 57.2475 31.6235C58.302 31.6235 59.5542 31.9344 60.3626 32.3279C60.3626 32.3279 60.6008 32.4641 60.6878 32.2605C60.7343 32.1504 61.1447 31.1787 61.1843 31.0698C61.2313 30.9558 61.1491 30.8698 61.0656 30.8254C60.143 30.3273 58.8688 29.9888 57.5507 29.9888L57.3055 29.9895C55.0603 29.9895 53.4918 31.192 53.4918 32.912V32.9489C53.4918 34.7623 55.2229 35.3538 56.8398 35.7624L57.0994 35.834C58.2813 36.1546 59.2963 36.4332 59.2963 37.1648V37.2014C59.2963 37.8746 58.6328 38.3766 57.5696 38.3766C57.1552 38.3766 55.834 38.3703 54.4105 37.5711C54.2378 37.4819 54.1368 37.4205 54.0058 37.3458C53.9614 37.3208 53.7545 37.2492 53.6838 37.4438L53.2005 38.6346M77.7174 34.9923C77.7174 36.0429 77.4959 36.8718 77.0627 37.4594C76.6304 38.0392 75.9775 38.3233 75.068 38.3233C74.1585 38.3233 73.5082 38.0415 73.082 37.4633C72.6527 36.8796 72.4361 36.0468 72.4361 34.9962C72.4361 33.9455 72.654 33.1205 73.082 32.5407C73.5073 31.9648 74.1541 31.6885 75.068 31.6885C75.9818 31.6885 76.6321 31.9675 77.0627 32.5407C77.4986 33.1205 77.7174 33.9455 77.7174 34.9962M79.7648 33.0466C79.5632 32.4434 79.2508 31.9142 78.8334 31.4706C78.4155 31.027 77.8887 30.669 77.2604 30.4121C76.6365 30.1534 75.8984 30.023 75.0636 30.023C74.2288 30.023 73.495 30.1542 72.8667 30.4121C72.2428 30.6705 71.7112 31.027 71.2938 31.4706C70.8772 31.9142 70.5644 32.4434 70.3623 33.0466C70.1624 33.6459 70.0609 34.2996 70.0609 34.9962C70.0609 35.6927 70.1624 36.3465 70.3623 36.9457C70.5631 37.5489 70.8764 38.0781 71.2938 38.5217C71.7116 38.9653 72.2428 39.3194 72.8667 39.5724C73.495 39.8245 74.2332 39.953 75.0636 39.953C75.894 39.953 76.6321 39.8245 77.256 39.5724C77.8799 39.3202 78.4116 38.9653 78.829 38.5217C79.2459 38.0781 79.5583 37.5489 79.7604 36.9457C79.9599 36.3465 80.0614 35.6927 80.0614 34.9962C80.0614 34.3035 79.9599 33.6459 79.7604 33.0466M96.5884 38.0275C96.5211 37.8512 96.3269 37.9178 96.3269 37.9178C96.0295 38.0186 95.7118 38.112 95.3735 38.1587C95.0325 38.2061 94.6529 38.2299 94.2531 38.2299C93.2645 38.2299 92.4736 37.9688 91.9112 37.4516C91.3445 36.934 91.0281 36.1013 91.0325 34.9728C91.0356 33.9455 91.3159 33.175 91.819 32.5835C92.3155 31.9998 93.08 31.6963 94.0905 31.6963C94.9341 31.6963 95.58 31.7831 96.2566 31.9706C96.2566 31.9706 96.417 32.0325 96.4939 31.8453C96.6736 31.4056 96.8063 31.0904 96.9992 30.6079C97.0536 30.4697 96.9201 30.4114 96.8713 30.3946C96.6059 30.3028 95.9794 30.1522 95.5049 30.0888C95.0611 30.0288 94.547 29.9977 93.9671 29.9977C93.1059 29.9977 92.3414 30.1281 91.6867 30.3865C91.0321 30.6445 90.4785 31.0013 90.0391 31.4449C89.5997 31.8885 89.2658 32.4177 89.0417 33.0209C88.8198 33.6202 88.7078 34.2778 88.7078 34.9744C88.7078 36.4764 89.1647 37.6944 90.0698 38.5855C90.9749 39.4805 92.337 39.9319 94.1121 39.9319C95.1622 39.9319 96.2386 39.744 97.0119 39.4728C97.0119 39.4728 97.1595 39.4097 97.0954 39.2572L96.5901 38.0275M100.171 33.9805C100.269 33.3968 100.45 32.9104 100.733 32.5329C101.158 31.957 101.805 31.6418 102.715 31.6418C103.624 31.6418 104.226 31.9586 104.657 32.5329C104.943 32.9123 105.067 33.4163 105.114 33.9805L100.149 33.9797L100.171 33.9805ZM107.069 32.6964C106.895 32.1166 106.463 31.529 106.182 31.2605C105.733 30.8363 105.298 30.5367 104.863 30.3732C104.235 30.1367 103.56 30.0153 102.878 30.0164C102.012 30.0164 101.225 30.146 100.588 30.4094C99.9513 30.6748 99.4153 31.0359 98.9935 31.4873C98.5721 31.9387 98.2553 32.4718 98.0532 33.0828C97.8511 33.6859 97.7492 34.3475 97.7492 35.0401C97.7492 35.7484 97.8551 36.406 98.0633 37.0014C98.2738 37.6006 98.6125 38.126 99.0695 38.5618C99.5264 39.0015 100.111 39.344 100.814 39.5852C101.512 39.8245 102.36 39.9487 103.331 39.9459C105.335 39.9401 106.389 39.5451 106.82 39.3311C106.897 39.293 106.969 39.2272 106.879 39.0377L106.426 37.9131C106.357 37.7454 106.165 37.8061 106.165 37.8061C105.669 37.9703 104.966 38.2653 103.318 38.2614C102.242 38.2598 101.446 37.9785 100.946 37.5376C100.436 37.0862 100.181 36.4286 100.142 35.4946L107.084 35.4993C107.084 35.4993 107.266 35.4978 107.285 35.3398C107.293 35.2744 107.523 34.079 107.078 32.6975L107.069 32.6964ZM44.6784 33.9805C44.7764 33.3968 44.9574 32.9104 45.2408 32.5329C45.6661 31.957 46.3129 31.6418 47.2224 31.6418C48.1319 31.6418 48.7338 31.9586 49.1644 32.5329C49.4495 32.9123 49.5743 33.4163 49.6213 33.9805L44.6564 33.9797L44.6784 33.9805ZM51.5765 32.6964C51.4025 32.1166 50.9702 31.529 50.689 31.2605C50.2408 30.8363 49.8059 30.5367 49.3709 30.3732C48.7429 30.1367 48.0673 30.0153 47.3849 30.0164C46.5194 30.0164 45.7329 30.146 45.0958 30.4094C44.4587 30.6748 43.9227 31.0359 43.5009 31.4873C43.0804 31.9387 42.7628 32.4718 42.5606 33.0828C42.359 33.6859 42.2575 34.3475 42.2575 35.0401C42.2575 35.7484 42.3625 36.406 42.5721 37.0014C42.7821 37.6006 43.1213 38.126 43.5738 38.5618C44.0308 39.0015 44.6151 39.344 45.3181 39.5852C46.0167 39.8245 46.8603 39.9487 47.8357 39.9459C49.8393 39.9401 50.8938 39.5451 51.3243 39.3311C51.4008 39.293 51.4737 39.2272 51.3828 39.0377L50.9302 37.9131C50.8604 37.7454 50.6688 37.8061 50.6688 37.8061C50.1723 37.9703 49.4693 38.2653 47.8217 38.2614C46.7496 38.2598 45.95 37.9785 45.4491 37.5376C44.9394 37.0862 44.6846 36.4286 44.645 35.4946L51.5871 35.4993C51.5871 35.4993 51.7699 35.4978 51.7888 35.3398C51.7962 35.2744 52.0265 34.079 51.5814 32.6975L51.5765 32.6964ZM29.6959 37.9886C29.4239 37.7964 29.3861 37.7493 29.296 37.6244C29.1585 37.4364 29.0882 37.1691 29.0882 36.8266C29.0882 36.2896 29.2903 35.9005 29.7077 35.6398C29.7033 35.6406 30.3053 35.1806 31.72 35.1962C32.3498 35.2062 32.978 35.2536 33.6005 35.3382V38.1283H33.6014C33.6014 38.1283 32.7227 38.296 31.7297 38.3489C30.3193 38.424 29.6954 37.9894 29.6998 37.9905L29.6959 37.9886ZM32.4551 33.6692C32.1739 33.6509 31.8092 33.642 31.3743 33.642C30.7811 33.642 30.2055 33.7073 29.6695 33.8358C29.1291 33.9649 28.6414 34.165 28.224 34.4311C27.8054 34.6956 27.4612 35.0418 27.2178 35.4429C26.9722 35.8476 26.847 36.3223 26.847 36.8593C26.847 37.4041 26.9537 37.875 27.1646 38.2602C27.3713 38.6423 27.6824 38.9727 28.0697 39.2214C28.4551 39.4696 28.9309 39.6533 29.4801 39.7623C30.0249 39.8724 30.6401 39.9281 31.3167 39.9281C32.0285 39.9281 32.7359 39.8751 33.4213 39.7728C34.0051 39.6836 34.5866 39.5834 35.1656 39.4724C35.3967 39.4253 35.6533 39.3634 35.6533 39.3634C35.8246 39.3249 35.8115 39.1626 35.8115 39.1626L35.8075 33.5591C35.8075 32.3294 35.4367 31.4149 34.7047 30.8507C33.9753 30.2865 32.9077 30.0024 31.5236 30.0024C31.0052 30.0024 30.166 30.0646 29.6651 30.1538C29.6651 30.1538 28.1537 30.4137 27.5298 30.8464C27.5298 30.8464 27.3927 30.9211 27.4674 31.0904L27.9595 32.2578C28.0205 32.4092 28.1871 32.3574 28.1871 32.3574C28.1871 32.3574 28.2393 32.3391 28.3009 32.3068C29.6321 31.6648 31.3193 31.6842 31.3193 31.6842C32.0663 31.6842 32.6462 31.8185 33.0329 32.0811C33.4112 32.3384 33.6041 32.7271 33.6041 33.5443V33.8038C33.0109 33.7276 32.4617 33.6836 32.4617 33.6836L32.4551 33.6692ZM88.2552 30.5055C88.2652 30.485 88.2705 30.4629 88.2706 30.4406C88.2708 30.4182 88.2658 30.3961 88.2561 30.3755C88.2464 30.3548 88.2321 30.3362 88.2141 30.3205C88.196 30.3049 88.1746 30.2927 88.1511 30.2845C88.0329 30.2448 87.4437 30.1347 86.9912 30.1098C86.1212 30.0615 85.6379 30.1915 85.2029 30.3643C84.7732 30.5359 84.2978 30.8118 84.0342 31.1309L84.0333 30.3837C84.0333 30.281 83.9512 30.1981 83.8343 30.1981H82.0592C81.9441 30.1981 81.8606 30.281 81.8606 30.3837V39.5284C81.8607 39.5778 81.883 39.6252 81.9224 39.6601C81.9618 39.695 82.0153 39.7147 82.0711 39.7148H83.8901C83.9458 39.7147 83.9992 39.695 84.0386 39.6601C84.078 39.6251 84.1001 39.5778 84.1001 39.5284V34.9366C84.1001 34.3218 84.1766 33.7108 84.329 33.3256C84.4793 32.9446 84.6836 32.6407 84.9353 32.4228C85.1755 32.2123 85.4694 32.0562 85.7921 31.9675C86.095 31.8905 86.4085 31.8515 86.7236 31.8516C87.0861 31.8516 87.4837 31.9341 87.4837 31.9341C87.6173 31.9473 87.6915 31.8749 87.7368 31.7683C87.8559 31.4877 88.1937 30.6476 88.2596 30.4802" fill="#FFFFFE"/>
<path fill-rule="evenodd" clip-rule="evenodd" d="M71.2667 26.285C71.0418 26.2248 70.8131 26.1768 70.5817 26.141C70.2704 26.095 69.9552 26.0734 69.6397 26.0765C68.3861 26.0765 67.398 26.3901 66.7042 27.0096C66.0153 27.6244 65.5465 28.5611 65.3114 29.7935L65.2266 30.2095H63.6532C63.6532 30.2095 63.4612 30.2024 63.4208 30.3881L63.1625 31.6644C63.1444 31.7866 63.2038 31.8629 63.3883 31.8621H64.9199L63.3659 39.5448C63.2442 40.1635 63.1049 40.6725 62.9507 41.0581C62.7987 41.4387 62.6501 41.7239 62.4674 41.931C62.2903 42.1314 62.1225 42.2789 61.8329 42.3649C61.5939 42.4361 61.3188 42.4688 61.0174 42.4688C60.8496 42.4688 60.6264 42.4438 60.4616 42.4147C60.2969 42.3859 60.2112 42.3532 60.0877 42.3073C60.0877 42.3073 59.908 42.2466 59.8373 42.4061C59.7797 42.5365 59.3716 43.5307 59.3232 43.6537C59.274 43.7751 59.343 43.8708 59.43 43.8984C59.6339 43.963 59.7854 44.0043 60.0631 44.0623C60.4489 44.1428 60.774 44.1479 61.0785 44.1479C61.7165 44.1479 62.2978 44.0685 62.7798 43.9144C63.2648 43.7591 63.6871 43.4887 64.0605 43.1225C64.4643 42.7275 64.7183 42.3139 64.9612 41.7496C65.2016 41.1904 65.4063 40.4962 65.5702 39.6872L67.1317 31.8621H69.4147C69.4147 31.8621 69.6071 31.8683 69.6471 31.6835L69.9055 30.4071C69.9235 30.2849 69.8646 30.2087 69.6792 30.2095H67.4635C67.4744 30.1651 67.5751 29.4748 67.8295 28.8249C67.938 28.5475 68.1423 28.3237 68.3154 28.17C68.477 28.0236 68.6761 27.9139 68.8958 27.8501C69.1366 27.7842 69.3876 27.7521 69.6397 27.7552C69.8484 27.7552 70.0531 27.7774 70.2091 27.8062C70.4239 27.8466 70.5074 27.868 70.5637 27.8828C70.7895 27.9439 70.8198 27.8848 70.8642 27.7879L71.3941 26.4991C71.4486 26.3605 71.3159 26.3021 71.2667 26.285ZM40.3024 39.5611C40.3024 39.6639 40.2198 39.7475 40.1038 39.7475H38.2659C38.1495 39.7475 38.0669 39.6639 38.0669 39.5611V26.4597C38.0669 26.3574 38.1495 26.2745 38.2659 26.2745H40.1038C40.2198 26.2745 40.3024 26.3574 40.3024 26.4597V39.5611Z" fill="#FFFFFE"/>
</g>
<defs>
<clipPath id="clip0_60219_2424">
<rect width="119.948" height="74.3247" fill="white"/>
</clipPath>
</defs>
</svg>
